<svg xmlns="http://www.w3.org/2000/svg" viewBox="0 0 220 220"><g fill="none" stroke-width="2"><path stroke="#8bd5a7" d="M91.31 79.44q-21.44-.82-42.73-7.57-7.17-2.28-14.44-4.76a1 1 0 0 0-1.32 1.06q1.95 17.21-.09 30.58-4.08 26.85-21 47.9-1.2 1.48.7 1.62 9.36.68 18.13 4.12 17.29 6.78 30.54 19.98a1.01 1-45.2 0 0 1.42-.01q26.03-25.93 60.41-37.73c17.95-6.16 37.39-8.07 56.39-7.24q11.88.52 22.54 1.95 2.12.29.98-1.52-10.43-16.57-9.05-35.83 1.25-17.47 10.17-33.66.98-1.78-.95-1.15-10.88 3.57-17.47 3.77c-14.68.45-21.39-7.69-23.43-20.85q-.6-3.89-.86-7.81-.18-2.68-1.5-.34-6.24 11.1-14.55 20.77c-13.03 15.17-33.37 27.51-53.89 26.72" vector-effect="non-scaling-stroke"/><path stroke="#8bd5a7" d="M79.56 84.69q-17.69-1.51-37.99-8.01a1 1 0 0 0-1.3.96q.01 17.62-6.29 34.06-7 18.26-18.56 33.66-1.09 1.45.71 1.6 6.86.57 13.4 2.71 17.42 5.71 31.11 17.83a1 .99-44 0 0 1.3.02c22.43-18.52 45.79-33.11 75.1-40.57q25.92-6.59 52.4-7.22a1 1 0 0 0 .96-1.2q-3.7-18.2 1.93-35.83 3.72-11.62 9.25-22.47.96-1.87-1-1.11-11.1 4.3-23.01 3.54c-8.11-.52-13.89-5.39-17.08-12.84q-2.08-4.85-2.47-10.1-.18-2.47-1.48-.36-3.72 6.07-7.77 11.94c-16.33 23.69-39.81 35.9-69.21 33.39" vector-effect="non-scaling-stroke"/><path stroke="#8bd5a7" d="M156.62 73.28q.34-5.91 1.26-11.75.18-1.09-.38-1.15a.42.42 0 0 0-.41.24q-5.55 12.2-16.57 22.65-.87.82-.46 1.89a.99.99 0 0 0 1.28.58l1.9-.7a1 1 0 0 1 1.34 1.08l-3.96 27.44a1 1 0 0 0 1.25 1.11l9.56-2.56a1.01 1.01 0 0 0 .73-.85l3.61-30.08a1.01 1 85.1 0 1 .7-.84q1.97-.61 4.69-1.74 4.01-1.68 5.25-5.44.62-1.89-1.27-1.27l-7.2 2.4a1.01 1.01 0 0 1-1.32-1.01" vector-effect="non-scaling-stroke"/><path stroke="#8bd5a7" d="M167.75 94.5q.48.74 1.54.27c5.74-2.57 11.34-5.71 13.55-11.56 3.28-8.65-3.71-11.34-10.47-8.01q-13.16 6.47-15.44 21.02c-.88 5.6-.15 11.89 6.15 13.22 9.46 2.01 15.45-6.5 19.7-13.44q.38-.61.43-1.26.2-2.59-1.43-.56-1.91 2.39-3.93 4.66-2.82 3.18-7.21 3.79a1.02 1 64 0 1-.87-.31q-3.2-3.44-2.02-7.82" vector-effect="non-scaling-stroke"/><path stroke="#90cba7" d="M167.75 94.5q6.46-4.88 8.27-12.76c1.17-5.08-2.2-3.8-3.75-1.03q-3.58 6.38-4.52 13.79" vector-effect="non-scaling-stroke"/><path stroke="#8bd5a7" d="M127.68 87.59a.34.34 0 0 0-.22.27l-5.4 33.23a.34.34 0 0 0 .46.37l10.66-4.05a.34.34 0 0 0 .21-.26l5.32-32.86a.34.34 0 0 0-.45-.37l-10.58 3.67M112.96 98.2q-.7 1.52-1.44.02-1.19-2.38-3.74-3.44a1 1 0 0 0-.71-.03l-4 1.37a1 1 0 0 0-.57 1.39q2.03 4.14 1.42 8.43-1.72 12.29-4.24 24.96-.32 1.62 1.15.87l9.84-5.01a1.01 1 80.3 0 0 .53-.76q1.32-9.55 3.01-19.08c.88-4.95 3.47-7.54 8.35-8.07a1.01.99-87.6 0 0 .87-.81l1.58-8.29a1 1 0 0 0-1.29-1.14q-7.44 2.41-10.76 9.59m-52.99 5.61q-.81-2.94 1.82-4.51c3.72-2.22 8.18-2.3 11.61.47q.75.61 1.51 1.21a1 .99-65.5 0 0 1.6-.6l1.47-8.08a1.01 1.01 0 0 0-.77-1.16q-8.72-1.9-16.7 1.34-12.69 5.15-12.5 18.67c.11 7.86 13.36 9.88 11.78 17.36q-1.55 7.36-10.06 8.01-3.69.28-7.4-2.04a1 .99 24 0 0-1.49.57l-3.06 10.8a1 .99 10.6 0 0 .87 1.26q21.42 2.08 30.32-15.69c3.03-6.05 3.3-12.1-.67-17.51-2.54-3.46-6.94-5.06-8.33-10.1" vector-effect="non-scaling-stroke"/><path stroke="#8bd5a7" d="M95.44 100.89q-2.52-.91-4.9-.12-8.47 2.78-16.91 5.69a1 1 0 0 0-.34 1.7q1.4 1.23 1.46 3.34.07 2.63-.33 4.78l-6.5 35.38q-.35 1.95 1.26.8l9.48-6.8a1.01 1-13.2 0 0 .4-.64l1.41-8.26a1 1 0 0 1 .56-.73c10.28-4.93 15.98-9.46 19.45-21.21 1.7-5.72.96-11.78-5.04-13.93" vector-effect="non-scaling-stroke"/><path stroke="#8bd5a7" d="M91.12 107.73c-3.28-3.37-5.71 1.47-6.17 4.01q-1.87 10.4-3.77 20.81-.65 3.63 1.75.83 4.31-5.02 6.63-11.82c1.61-4.74 2.55-8.57 1.83-13.28a1.04 1.01-72 0 0-.27-.55" vector-effect="non-scaling-stroke"/></g><path fill="#17aa4f" d="M0 0h220v220H0V0Zm91.31 79.44q-21.44-.82-42.73-7.57-7.17-2.28-14.44-4.76a1 1 0 0 0-1.32 1.06q1.95 17.21-.09 30.58-4.08 26.85-21 47.9-1.2 1.48.7 1.62 9.36.68 18.13 4.12 17.29 6.78 30.54 19.98a1.01 1-45.2 0 0 1.42-.01q26.03-25.93 60.41-37.73c17.95-6.16 37.39-8.07 56.39-7.24q11.88.52 22.54 1.95 2.12.29.98-1.52-10.43-16.57-9.05-35.83 1.25-17.47 10.17-33.66.98-1.78-.95-1.15-10.88 3.57-17.47 3.77c-14.68.45-21.39-7.69-23.43-20.85q-.6-3.89-.86-7.81-.18-2.68-1.5-.34-6.24 11.1-14.55 20.77c-13.03 15.17-33.37 27.51-53.89 26.72Z"/><path fill="#fff" d="M91.31 79.44c20.52.79 40.86-11.55 53.89-26.72q8.31-9.67 14.55-20.77 1.32-2.34 1.5.34.26 3.92.86 7.81c2.04 13.16 8.75 21.3 23.43 20.85q6.59-.2 17.47-3.77 1.93-.63.95 1.15-8.92 16.19-10.17 33.66-1.38 19.26 9.05 35.83 1.14 1.81-.98 1.52-10.66-1.43-22.54-1.95c-19-.83-38.44 1.08-56.39 7.24q-34.38 11.8-60.41 37.73a1.01 1-45.2 0 1-1.42.01q-13.25-13.2-30.54-19.98-8.77-3.44-18.13-4.12-1.9-.14-.7-1.62 16.92-21.05 21-47.9 2.04-13.37.09-30.58a1 1 0 0 1 1.32-1.06q7.27 2.48 14.44 4.76 21.29 6.75 42.73 7.57Zm-11.75 5.25q-17.69-1.51-37.99-8.01a1 1 0 0 0-1.3.96q.01 17.62-6.29 34.06-7 18.26-18.56 33.66-1.09 1.45.71 1.6 6.86.57 13.4 2.71 17.42 5.71 31.11 17.83a1 .99-44 0 0 1.3.02c22.43-18.52 45.79-33.11 75.1-40.57q25.92-6.59 52.4-7.22a1 1 0 0 0 .96-1.2q-3.7-18.2 1.93-35.83 3.72-11.62 9.25-22.47.96-1.87-1-1.11-11.1 4.3-23.01 3.54c-8.11-.52-13.89-5.39-17.08-12.84q-2.08-4.85-2.47-10.1-.18-2.47-1.48-.36-3.72 6.07-7.77 11.94c-16.33 23.69-39.81 35.9-69.21 33.39Z"/><path fill="#17aa4f" d="M79.56 84.69c29.4 2.51 52.88-9.7 69.21-33.39q4.05-5.87 7.77-11.94 1.3-2.11 1.48.36.39 5.25 2.47 10.1c3.19 7.45 8.97 12.32 17.08 12.84q11.91.76 23.01-3.54 1.96-.76 1 1.11-5.53 10.85-9.25 22.47-5.63 17.63-1.93 35.83a1 1 0 0 1-.96 1.2q-26.48.63-52.4 7.22c-29.31 7.46-52.67 22.05-75.1 40.57a1 .99-44 0 1-1.3-.02q-13.69-12.12-31.11-17.83-6.54-2.14-13.4-2.71-1.8-.15-.71-1.6 11.56-15.4 18.56-33.66 6.3-16.44 6.29-34.06a1 1 0 0 1 1.3-.96q20.3 6.5 37.99 8.01Zm77.06-11.41q.34-5.91 1.26-11.75.18-1.09-.38-1.15a.42.42 0 0 0-.41.24q-5.55 12.2-16.57 22.65-.87.82-.46 1.89a.99.99 0 0 0 1.28.58l1.9-.7a1 1 0 0 1 1.34 1.08l-3.96 27.44a1 1 0 0 0 1.25 1.11l9.56-2.56a1.01 1.01 0 0 0 .73-.85l3.61-30.08a1.01 1 85.1 0 1 .7-.84q1.97-.61 4.69-1.74 4.01-1.68 5.25-5.44.62-1.89-1.27-1.27l-7.2 2.4a1.01 1.01 0 0 1-1.32-1.01Zm11.13 21.22q.48.74 1.54.27c5.74-2.57 11.34-5.71 13.55-11.56 3.28-8.65-3.71-11.34-10.47-8.01q-13.16 6.47-15.44 21.02c-.88 5.6-.15 11.89 6.15 13.22 9.46 2.01 15.45-6.5 19.7-13.44q.38-.61.43-1.26.2-2.59-1.43-.56-1.91 2.39-3.93 4.66-2.82 3.18-7.21 3.79a1.02 1 64 0 1-.87-.31q-3.2-3.44-2.02-7.82Zm-40.07-6.91a.34.34 0 0 0-.22.27l-5.4 33.23a.34.34 0 0 0 .46.37l10.66-4.05a.34.34 0 0 0 .21-.26l5.32-32.86a.34.34 0 0 0-.45-.37l-10.58 3.67ZM112.96 98.2q-.7 1.52-1.44.02-1.19-2.38-3.74-3.44a1 1 0 0 0-.71-.03l-4 1.37a1 1 0 0 0-.57 1.39q2.03 4.14 1.42 8.43-1.72 12.29-4.24 24.96-.32 1.62 1.15.87l9.84-5.01a1.01 1 80.3 0 0 .53-.76q1.32-9.55 3.01-19.08c.88-4.95 3.47-7.54 8.35-8.07a1.01.99-87.6 0 0 .87-.81l1.58-8.29a1 1 0 0 0-1.29-1.14q-7.44 2.41-10.76 9.59Zm-52.99 5.61q-.81-2.94 1.82-4.51c3.72-2.22 8.18-2.3 11.61.47q.75.61 1.51 1.21a1 .99-65.5 0 0 1.6-.6l1.47-8.08a1.01 1.01 0 0 0-.77-1.16q-8.72-1.9-16.7 1.34-12.69 5.15-12.5 18.67c.11 7.86 13.36 9.88 11.78 17.36q-1.55 7.36-10.06 8.01-3.69.28-7.4-2.04a1 .99 24 0 0-1.49.57l-3.06 10.8a1 .99 10.6 0 0 .87 1.26q21.42 2.08 30.32-15.69c3.03-6.05 3.3-12.1-.67-17.51-2.54-3.46-6.94-5.06-8.33-10.1Zm35.47-2.92q-2.52-.91-4.9-.12-8.47 2.78-16.91 5.69a1 1 0 0 0-.34 1.7q1.4 1.23 1.46 3.34.07 2.63-.33 4.78l-6.5 35.38q-.35 1.95 1.26.8l9.48-6.8a1.01 1-13.2 0 0 .4-.64l1.41-8.26a1 1 0 0 1 .56-.73c10.28-4.93 15.98-9.46 19.45-21.21 1.7-5.72.96-11.78-5.04-13.93Z"/><path fill="#fff" d="m157.94 74.29 7.2-2.4q1.89-.62 1.27 1.27-1.24 3.76-5.25 5.44-2.72 1.13-4.69 1.74a1.01 1 85.1 0 0-.7.84l-3.61 30.08a1.01 1.01 0 0 1-.73.85l-9.56 2.56a1 1 0 0 1-1.25-1.11l3.96-27.44a1 1 0 0 0-1.34-1.08l-1.9.7a.99.99 0 0 1-1.28-.58q-.41-1.07.46-1.89 11.02-10.45 16.57-22.65a.42.42 0 0 1 .41-.24q.56.06.38 1.15-.92 5.84-1.26 11.75a1.01 1.01 0 0 0 1.32 1.01Z"/><path fill="#fff" d="M167.75 94.5q6.46-4.88 8.27-12.76c1.17-5.08-2.2-3.8-3.75-1.03q-3.58 6.38-4.52 13.79-1.18 4.38 2.02 7.82a1.02 1 64 0 0 .87.31q4.39-.61 7.21-3.79 2.02-2.27 3.93-4.66 1.63-2.03 1.43.56-.05.65-.43 1.26c-4.25 6.94-10.24 15.45-19.7 13.44-6.3-1.33-7.03-7.62-6.15-13.22q2.28-14.55 15.44-21.02c6.76-3.33 13.75-.64 10.47 8.01-2.21 5.85-7.81 8.99-13.55 11.56q-1.06.47-1.54-.27Z"/><path fill="#20974e" d="M167.75 94.5q.94-7.41 4.52-13.79c1.55-2.77 4.92-4.05 3.75 1.03q-1.81 7.88-8.27 12.76Z"/><path fill="#fff" d="m127.68 87.59 10.58-3.67a.34.34 0 0 1 .45.37l-5.32 32.86a.34.34 0 0 1-.21.26l-10.66 4.05a.34.34 0 0 1-.46-.37l5.4-33.23a.34.34 0 0 1 .22-.27ZM112.96 98.2q3.32-7.18 10.76-9.59a1 1 0 0 1 1.29 1.14l-1.58 8.29a1.01.99-87.6 0 1-.87.81c-4.88.53-7.47 3.12-8.35 8.07q-1.69 9.53-3.01 19.08a1.01 1 80.3 0 1-.53.76l-9.84 5.01q-1.47.75-1.15-.87 2.52-12.67 4.24-24.96.61-4.29-1.42-8.43a1 1 0 0 1 .57-1.39l4-1.37a1 1 0 0 1 .71.03q2.55 1.06 3.74 3.44.74 1.5 1.44-.02Zm-52.99 5.61c1.39 5.04 5.79 6.64 8.33 10.1 3.97 5.41 3.7 11.46.67 17.51q-8.9 17.77-30.32 15.69a1 .99 10.6 0 1-.87-1.26l3.06-10.8a1 .99 24 0 1 1.49-.57q3.71 2.32 7.4 2.04 8.51-.65 10.06-8.01c1.58-7.48-11.67-9.5-11.78-17.36q-.19-13.52 12.5-18.67 7.98-3.24 16.7-1.34a1.01 1.01 0 0 1 .77 1.16l-1.47 8.08a1 .99-65.5 0 1-1.6.6q-.76-.6-1.51-1.21c-3.43-2.77-7.89-2.69-11.61-.47q-2.63 1.57-1.82 4.51Z"/><path fill="#fff" d="M95.44 100.89c6 2.15 6.74 8.21 5.04 13.93-3.47 11.75-9.17 16.28-19.45 21.21a1 1 0 0 0-.56.73l-1.41 8.26a1.01 1-13.2 0 1-.4.64l-9.48 6.8q-1.61 1.15-1.26-.8l6.5-35.38q.4-2.15.33-4.78-.06-2.11-1.46-3.34a1 1 0 0 1 .34-1.7q8.44-2.91 16.91-5.69 2.38-.79 4.9.12Zm-4.32 6.84c-3.28-3.37-5.71 1.47-6.17 4.01q-1.87 10.4-3.77 20.81-.65 3.63 1.75.83 4.31-5.02 6.63-11.82c1.61-4.74 2.55-8.57 1.83-13.28a1.04 1.01-72 0 0-.27-.55Z"/><path fill="#17aa4f" d="M91.12 107.73a1.04 1.01-72 0 1 .27.55c.72 4.71-.22 8.54-1.83 13.28q-2.32 6.8-6.63 11.82-2.4 2.8-1.75-.83 1.9-10.41 3.77-20.81c.46-2.54 2.89-7.38 6.17-4.01Z"/></svg>